<mxfile host="65bd71144e">
    <diagram id="main-architecture" name="主体技术架构">
        <mxGraphModel dx="1185" dy="822" grid="1" gridSize="10" guides="1" tooltips="1" connect="1" arrows="1" fold="1" page="1" pageScale="1" pageWidth="1169" pageHeight="827" math="0" shadow="0">
            <root>
                <mxCell id="0"/>
                <mxCell id="1" parent="0"/>
                <mxCell id="bg-container" value="" style="rounded=1;whiteSpace=wrap;html=1;fillColor=#F6F6F6;strokeColor=none;" parent="1" vertex="1">
                    <mxGeometry x="40" y="40" width="1080" height="780" as="geometry"/>
                </mxCell>
                <mxCell id="header-bar" value="" style="rounded=0;whiteSpace=wrap;html=1;fillColor=#4DA1F5;strokeColor=none;" parent="1" vertex="1">
                    <mxGeometry x="40" y="40" width="1080" height="45" as="geometry"/>
                </mxCell>
                <mxCell id="title" value="基于RAG+CoT的变电设备故障分析推理技术架构" style="text;html=1;strokeColor=none;fillColor=none;align=center;verticalAlign=middle;whiteSpace=wrap;rounded=0;fontSize=22;fontStyle=1;fontColor=#FFFFFF;" parent="1" vertex="1">
                    <mxGeometry x="110" y="40" width="940" height="45" as="geometry"/>
                </mxCell>
                <mxCell id="data-layer" value="" style="rounded=1;whiteSpace=wrap;html=1;fillColor=#E1F5FE;strokeColor=#dddddd;shadow=1;strokeWidth=1;arcSize=15;" parent="1" vertex="1">
                    <mxGeometry x="200" y="110" width="880" height="85" as="geometry"/>
                </mxCell>
                <mxCell id="data-layer-label" value="多源异构数据层" style="rounded=1;whiteSpace=wrap;html=1;fillColor=#B3E5FC;strokeColor=#dddddd;fontSize=15;fontStyle=1;fontColor=#333333;shadow=1;strokeWidth=1;align=center;verticalAlign=middle;arcSize=15;" parent="1" vertex="1">
                    <mxGeometry x="60" y="110" width="120" height="85" as="geometry"/>
                </mxCell>
                <mxCell id="fault-cases" value="故障案例" style="rounded=1;whiteSpace=wrap;html=1;fillColor=#fff2cc;strokeColor=#d6b656;arcSize=10;fontSize=12;" parent="1" vertex="1">
                    <mxGeometry x="225" y="130" width="110" height="45" as="geometry"/>
                </mxCell>
                <mxCell id="standards" value="标准规程" style="rounded=1;whiteSpace=wrap;html=1;fillColor=#fff2cc;strokeColor=#d6b656;arcSize=10;fontSize=12;" parent="1" vertex="1">
                    <mxGeometry x="365" y="130" width="110" height="45" as="geometry"/>
                </mxCell>
                <mxCell id="operation-data" value="运维数据" style="rounded=1;whiteSpace=wrap;html=1;fillColor=#fff2cc;strokeColor=#d6b656;arcSize=10;fontSize=12;" parent="1" vertex="1">
                    <mxGeometry x="505" y="130" width="110" height="45" as="geometry"/>
                </mxCell>
                <mxCell id="images-desc" value="图文关联" style="rounded=1;whiteSpace=wrap;html=1;fillColor=#fff2cc;strokeColor=#d6b656;arcSize=10;fontSize=12;" parent="1" vertex="1">
                    <mxGeometry x="645" y="130" width="110" height="45" as="geometry"/>
                </mxCell>
                <mxCell id="internet-data" value="互联网数据" style="rounded=1;whiteSpace=wrap;html=1;fillColor=#fff2cc;strokeColor=#d6b656;arcSize=10;fontSize=12;" parent="1" vertex="1">
                    <mxGeometry x="785" y="130" width="110" height="45" as="geometry"/>
                </mxCell>
                <mxCell id="knowledge-layer" value="" style="rounded=1;whiteSpace=wrap;html=1;fillColor=#FFFFFF;strokeColor=#dddddd;shadow=1;strokeWidth=1;arcSize=15;" parent="1" vertex="1">
                    <mxGeometry x="200" y="220" width="880" height="125" as="geometry"/>
                </mxCell>
                <mxCell id="knowledge-layer-label" value="知识构建与表征学习层" style="rounded=1;whiteSpace=wrap;html=1;fillColor=#E0E0E0;strokeColor=#dddddd;fontSize=15;fontStyle=1;fontColor=#333333;shadow=1;strokeWidth=1;align=center;verticalAlign=middle;arcSize=15;" parent="1" vertex="1">
                    <mxGeometry x="60" y="220" width="120" height="125" as="geometry"/>
                </mxCell>
                <mxCell id="text-processing" value="文档智能解析&#xa;MinerU+OCR" style="rounded=1;whiteSpace=wrap;html=1;fillColor=#dae8fc;strokeColor=#6c8ebf;arcSize=10;fontSize=11;" parent="1" vertex="1">
                    <mxGeometry x="215" y="245" width="125" height="65" as="geometry"/>
                </mxCell>
                <mxCell id="entity-extraction" value="实体识别与&#xa;关系抽取" style="rounded=1;whiteSpace=wrap;html=1;fillColor=#dae8fc;strokeColor=#6c8ebf;arcSize=10;fontSize=11;" parent="1" vertex="1">
                    <mxGeometry x="360" y="245" width="125" height="65" as="geometry"/>
                </mxCell>
                <mxCell id="knowledge-graph" value="故障因果&#xa;知识图谱" style="rounded=1;whiteSpace=wrap;html=1;fillColor=#dae8fc;strokeColor=#6c8ebf;arcSize=10;fontSize=11;" parent="1" vertex="1">
                    <mxGeometry x="505" y="245" width="125" height="65" as="geometry"/>
                </mxCell>
                <mxCell id="vector-embedding" value="语义向量化与&#xa;分层索引" style="rounded=1;whiteSpace=wrap;html=1;fillColor=#dae8fc;strokeColor=#6c8ebf;arcSize=10;fontSize=11;" parent="1" vertex="1">
                    <mxGeometry x="650" y="245" width="125" height="65" as="geometry"/>
                </mxCell>
                <mxCell id="representation" value="表征学习与&#xa;特征融合" style="rounded=1;whiteSpace=wrap;html=1;fillColor=#dae8fc;strokeColor=#6c8ebf;arcSize=10;fontSize=11;" parent="1" vertex="1">
                    <mxGeometry x="795" y="245" width="125" height="65" as="geometry"/>
                </mxCell>
                <mxCell id="dynamic-update" value="动态知识&#xa;更新机制" style="rounded=1;whiteSpace=wrap;html=1;fillColor=#dae8fc;strokeColor=#6c8ebf;arcSize=10;fontSize=11;" parent="1" vertex="1">
                    <mxGeometry x="940" y="245" width="125" height="65" as="geometry"/>
                </mxCell>
                <mxCell id="reasoning-layer" value="" style="rounded=1;whiteSpace=wrap;html=1;fillColor=#FFFFFF;strokeColor=#dddddd;shadow=1;strokeWidth=1;arcSize=15;" parent="1" vertex="1">
                    <mxGeometry x="200" y="363" width="880" height="160" as="geometry"/>
                </mxCell>
                <mxCell id="reasoning-layer-label" value="RAG+CoT协同推理层" style="rounded=1;whiteSpace=wrap;html=1;fillColor=#E0E0E0;strokeColor=#dddddd;fontSize=14;fontStyle=1;fontColor=#333333;shadow=1;strokeWidth=1;align=center;verticalAlign=middle;arcSize=15;" parent="1" vertex="1">
                    <mxGeometry x="60" y="361" width="120" height="160" as="geometry"/>
                </mxCell>
                <mxCell id="rag-module" value="" style="rounded=1;whiteSpace=wrap;html=1;fillColor=#f8cecc;strokeColor=#b85450;fontSize=12;fontStyle=1;arcSize=15;" parent="1" vertex="1">
                    <mxGeometry x="220" y="381" width="240" height="110" as="geometry"/>
                </mxCell>
                <mxCell id="rag-header" value="RAG 推理" style="rounded=1;whiteSpace=wrap;html=1;fillColor=#f8cecc;strokeColor=#b85450;fontSize=13;fontStyle=1;arcSize=15;" parent="1" vertex="1">
                    <mxGeometry x="242.5" y="381" width="190" height="24" as="geometry"/>
                </mxCell>
                <mxCell id="semantic-search" value="语义检索引擎" style="rounded=1;whiteSpace=wrap;html=1;fillColor=#ffffff;strokeColor=#b85450;arcSize=10;fontSize=11;" parent="1" vertex="1">
                    <mxGeometry x="237.5" y="415" width="95" height="28" as="geometry"/>
                </mxCell>
                <mxCell id="knowledge-fusion" value="知识融合重排" style="rounded=1;whiteSpace=wrap;html=1;fillColor=#ffffff;strokeColor=#b85450;arcSize=10;fontSize=11;" parent="1" vertex="1">
                    <mxGeometry x="347.5" y="415" width="95" height="28" as="geometry"/>
                </mxCell>
                <mxCell id="context-build" value="上下文构建" style="rounded=1;whiteSpace=wrap;html=1;fillColor=#ffffff;strokeColor=#b85450;arcSize=10;fontSize=11;" parent="1" vertex="1">
                    <mxGeometry x="237.5" y="451" width="95" height="28" as="geometry"/>
                </mxCell>
                <mxCell id="graph-retrieval-new" value="图谱路径检索" style="rounded=1;whiteSpace=wrap;html=1;fillColor=#ffffff;strokeColor=#b85450;arcSize=10;fontSize=11;" parent="1" vertex="1">
                    <mxGeometry x="347.5" y="451" width="95" height="28" as="geometry"/>
                </mxCell>
                <mxCell id="cot-module" value="" style="rounded=1;whiteSpace=wrap;html=1;fillColor=#e1d5e7;strokeColor=#9673a6;fontSize=12;fontStyle=1;arcSize=15;" parent="1" vertex="1">
                    <mxGeometry x="480" y="381" width="240" height="110" as="geometry"/>
                </mxCell>
                <mxCell id="cot-header" value="CoT 推理" style="rounded=1;whiteSpace=wrap;html=1;fillColor=#e1d5e7;strokeColor=#9673a6;fontSize=13;fontStyle=1;arcSize=15;" parent="1" vertex="1">
                    <mxGeometry x="505" y="381" width="190" height="24" as="geometry"/>
                </mxCell>
                <mxCell id="multi-step" value="多步推理路径" style="rounded=1;whiteSpace=wrap;html=1;fillColor=#ffffff;strokeColor=#9673a6;arcSize=10;fontSize=11;" parent="1" vertex="1">
                    <mxGeometry x="500" y="415" width="88" height="28" as="geometry"/>
                </mxCell>
                <mxCell id="causal-chain" value="因果链构建" style="rounded=1;whiteSpace=wrap;html=1;fillColor=#ffffff;strokeColor=#9673a6;arcSize=10;fontSize=11;" parent="1" vertex="1">
                    <mxGeometry x="605" y="415" width="88" height="28" as="geometry"/>
                </mxCell>
                <mxCell id="logical-verify" value="逻辑验证评估" style="rounded=1;whiteSpace=wrap;html=1;fillColor=#ffffff;strokeColor=#9673a6;arcSize=10;fontSize=11;" parent="1" vertex="1">
                    <mxGeometry x="500" y="451" width="88" height="28" as="geometry"/>
                </mxCell>
                <mxCell id="path-reasoning" value="推理路径生成" style="rounded=1;whiteSpace=wrap;html=1;fillColor=#ffffff;strokeColor=#9673a6;arcSize=10;fontSize=11;" parent="1" vertex="1">
                    <mxGeometry x="605" y="451" width="88" height="28" as="geometry"/>
                </mxCell>
                <mxCell id="collaboration" value="" style="rounded=1;whiteSpace=wrap;html=1;fillColor=#d5e8d4;strokeColor=#82b366;fontSize=12;fontStyle=1;arcSize=15;" parent="1" vertex="1">
                    <mxGeometry x="740" y="381" width="240" height="110" as="geometry"/>
                </mxCell>
                <mxCell id="cotllm-header" value="协同机制与大模型" style="rounded=1;whiteSpace=wrap;html=1;fillColor=#d5e8d4;strokeColor=#82b366;fontSize=13;fontStyle=1;arcSize=15;" parent="1" vertex="1">
                    <mxGeometry x="765" y="381" width="190" height="24" as="geometry"/>
                </mxCell>
                <mxCell id="dynamic-retrieval" value="动态检索调节" style="rounded=1;whiteSpace=wrap;html=1;fillColor=#ffffff;strokeColor=#82b366;arcSize=10;fontSize=11;" parent="1" vertex="1">
                    <mxGeometry x="760" y="415" width="88" height="28" as="geometry"/>
                </mxCell>
                <mxCell id="attention-control" value="注意力控制" style="rounded=1;whiteSpace=wrap;html=1;fillColor=#ffffff;strokeColor=#82b366;arcSize=10;fontSize=11;" parent="1" vertex="1">
                    <mxGeometry x="865" y="415" width="88" height="28" as="geometry"/>
                </mxCell>
                <mxCell id="domain-llm" value="领域适配模型" style="rounded=1;whiteSpace=wrap;html=1;fillColor=#ffffff;strokeColor=#82b366;arcSize=10;fontSize=11;" parent="1" vertex="1">
                    <mxGeometry x="760" y="451" width="88" height="28" as="geometry"/>
                </mxCell>
                <mxCell id="iteration-optimize" value="迭代优化反馈" style="rounded=1;whiteSpace=wrap;html=1;fillColor=#ffffff;strokeColor=#82b366;arcSize=10;fontSize=11;" parent="1" vertex="1">
                    <mxGeometry x="865" y="451" width="88" height="28" as="geometry"/>
                </mxCell>
                <mxCell id="application-layer" value="" style="rounded=1;whiteSpace=wrap;html=1;fillColor=#f8cecc;strokeColor=#b85450;shadow=1;strokeWidth=1;arcSize=15;" parent="1" vertex="1">
                    <mxGeometry x="200" y="550" width="880" height="100" as="geometry"/>
                </mxCell>
                <mxCell id="application-layer-label" value="智能体应用层" style="rounded=1;whiteSpace=wrap;html=1;fillColor=#FAD7C3;strokeColor=#b85450;fontSize=14;fontStyle=1;fontColor=#333333;shadow=1;strokeWidth=1;align=center;verticalAlign=middle;arcSize=15;" parent="1" vertex="1">
                    <mxGeometry x="60" y="545" width="120" height="105" as="geometry"/>
                </mxCell>
                <mxCell id="fault-agent" value="故障分析&#xa;智能体" style="rounded=1;whiteSpace=wrap;html=1;fillColor=#ffe6cc;strokeColor=#d79b00;arcSize=10;fontSize=12;" parent="1" vertex="1">
                    <mxGeometry x="210" y="570" width="125" height="55" as="geometry"/>
                </mxCell>
                <mxCell id="diagnosis-agent" value="诊断推理&#xa;智能体" style="rounded=1;whiteSpace=wrap;html=1;fillColor=#ffe6cc;strokeColor=#d79b00;arcSize=10;fontSize=12;" parent="1" vertex="1">
                    <mxGeometry x="365" y="570" width="125" height="55" as="geometry"/>
                </mxCell>
                <mxCell id="strategy-agent" value="策略生成&#xa;智能体" style="rounded=1;whiteSpace=wrap;html=1;fillColor=#ffe6cc;strokeColor=#d79b00;arcSize=10;fontSize=12;" parent="1" vertex="1">
                    <mxGeometry x="520" y="570" width="125" height="55" as="geometry"/>
                </mxCell>
                <mxCell id="interaction-agent" value="人机交互&#xa;智能体" style="rounded=1;whiteSpace=wrap;html=1;fillColor=#ffe6cc;strokeColor=#d79b00;arcSize=10;fontSize=12;" parent="1" vertex="1">
                    <mxGeometry x="675" y="570" width="125" height="55" as="geometry"/>
                </mxCell>
                <mxCell id="coordination-agent" value="协调控制&#xa;智能体" style="rounded=1;whiteSpace=wrap;html=1;fillColor=#ffe6cc;strokeColor=#d79b00;arcSize=10;fontSize=12;" parent="1" vertex="1">
                    <mxGeometry x="830" y="570" width="125" height="55" as="geometry"/>
                </mxCell>
                <mxCell id="output-layer" value="" style="rounded=1;whiteSpace=wrap;html=1;fillColor=#FFFFFF;strokeColor=#dddddd;shadow=1;strokeWidth=1;arcSize=15;" parent="1" vertex="1">
                    <mxGeometry x="200" y="680" width="880" height="85" as="geometry"/>
                </mxCell>
                <mxCell id="output-layer-label" value="智能决策输出" style="rounded=1;whiteSpace=wrap;html=1;fillColor=#E0E0E0;strokeColor=#dddddd;fontSize=14;fontStyle=1;fontColor=#333333;shadow=1;strokeWidth=1;align=center;verticalAlign=middle;arcSize=15;" parent="1" vertex="1">
                    <mxGeometry x="60" y="680" width="120" height="85" as="geometry"/>
                </mxCell>
                <mxCell id="fault-analysis" value="故障分析报告" style="rounded=1;whiteSpace=wrap;html=1;fillColor=#dae8fc;strokeColor=#6c8ebf;arcSize=10;fontSize=12;" parent="1" vertex="1">
                    <mxGeometry x="210" y="700" width="125" height="45" as="geometry"/>
                </mxCell>
                <mxCell id="causal-reasoning" value="因果推理链条" style="rounded=1;whiteSpace=wrap;html=1;fillColor=#dae8fc;strokeColor=#6c8ebf;arcSize=10;fontSize=12;" parent="1" vertex="1">
                    <mxGeometry x="365" y="700" width="125" height="45" as="geometry"/>
                </mxCell>
                <mxCell id="repair-strategy" value="检修策略建议" style="rounded=1;whiteSpace=wrap;html=1;fillColor=#dae8fc;strokeColor=#6c8ebf;arcSize=10;fontSize=12;" parent="1" vertex="1">
                    <mxGeometry x="520" y="700" width="125" height="45" as="geometry"/>
                </mxCell>
                <mxCell id="risk-assessment" value="风险评估预警" style="rounded=1;whiteSpace=wrap;html=1;fillColor=#dae8fc;strokeColor=#6c8ebf;arcSize=10;fontSize=12;" parent="1" vertex="1">
                    <mxGeometry x="675" y="700" width="125" height="45" as="geometry"/>
                </mxCell>
                <mxCell id="decision-support" value="决策支持系统" style="rounded=1;whiteSpace=wrap;html=1;fillColor=#dae8fc;strokeColor=#6c8ebf;arcSize=10;fontSize=12;" parent="1" vertex="1">
                    <mxGeometry x="830" y="700" width="125" height="45" as="geometry"/>
                </mxCell>
                <mxCell id="flow1" style="edgeStyle=orthogonalEdgeStyle;rounded=0;orthogonalLoop=1;jettySize=auto;html=1;exitX=0.5;exitY=1;entryX=0.5;entryY=0;strokeWidth=3;strokeColor=#6c8ebf;" parent="1" edge="1">
                    <mxGeometry relative="1" as="geometry">
                        <mxPoint x="635" y="195" as="sourcePoint"/>
                        <mxPoint x="635" y="220" as="targetPoint"/>
                    </mxGeometry>
                </mxCell>
                <mxCell id="flow2" style="edgeStyle=orthogonalEdgeStyle;rounded=0;orthogonalLoop=1;jettySize=auto;html=1;entryX=0.5;entryY=0;strokeWidth=3;strokeColor=#d79b00;" parent="1" edge="1">
                    <mxGeometry relative="1" as="geometry">
                        <mxPoint x="636" y="333" as="sourcePoint"/>
                        <mxPoint x="636" y="363" as="targetPoint"/>
                    </mxGeometry>
                </mxCell>
                <mxCell id="flow3" style="edgeStyle=orthogonalEdgeStyle;rounded=0;orthogonalLoop=1;jettySize=auto;html=1;entryX=0.5;entryY=0;strokeWidth=3;strokeColor=#b85450;" parent="1" edge="1">
                    <mxGeometry relative="1" as="geometry">
                        <mxPoint x="640" y="520" as="sourcePoint"/>
                        <mxPoint x="640" y="553" as="targetPoint"/>
                        <Array as="points">
                            <mxPoint x="640" y="520"/>
                        </Array>
                    </mxGeometry>
                </mxCell>
                <mxCell id="flow4" style="edgeStyle=orthogonalEdgeStyle;rounded=0;orthogonalLoop=1;jettySize=auto;html=1;exitX=0.5;exitY=1;entryX=0.5;entryY=0;strokeWidth=3;strokeColor=#9673a6;" parent="1" source="application-layer" target="output-layer" edge="1">
                    <mxGeometry relative="1" as="geometry"/>
                </mxCell>
                <mxCell id="feedback" style="edgeStyle=orthogonalEdgeStyle;rounded=0;orthogonalLoop=1;jettySize=auto;html=1;exitX=1;exitY=0.5;entryX=1;entryY=0.5;strokeWidth=2;strokeColor=#82b366;dashed=1;" parent="1" source="output-layer" target="knowledge-layer" edge="1">
                    <mxGeometry relative="1" as="geometry">
                        <Array as="points">
                            <mxPoint x="1080" y="722"/>
                            <mxPoint x="1130" y="722"/>
                            <mxPoint x="1130" y="282"/>
                        </Array>
                    </mxGeometry>
                </mxCell>
                <mxCell id="feedback-label" value="反馈优化" style="text;html=1;strokeColor=none;fillColor=none;align=center;verticalAlign=middle;whiteSpace=wrap;rounded=0;fontSize=12;fontColor=#82b366;" parent="1" vertex="1">
                    <mxGeometry x="1100" y="466" width="60" height="20" as="geometry"/>
                </mxCell>
            </root>
        </mxGraphModel>
    </diagram>
</mxfile>